<svg width="255" height="72" viewBox="0 0 85 24" fill="none" xmlns="http://www.w3.org/2000/svg">
<path d="M71.2002 11.6931C71.2002 7.52624 67.879 4.13459 63.7987 4.13459C62.8497 4.13459 61.9008 4.3284 61.0468 4.68371C60.1928 4.16689 59.0857 4.26379 58.3266 5.00673L57.5674 5.81427L58.0735 6.33109L56.6502 7.78466C56.5236 7.91386 56.5236 8.10767 56.6502 8.23688C56.7767 8.36608 56.9665 8.36608 57.093 8.23688L58.5164 6.78331L59.1173 7.39704L59.7183 8.01077L58.2949 9.46433C58.1684 9.59354 58.1684 9.78735 58.2949 9.91655C58.4215 10.0458 58.6112 10.0458 58.7378 9.91655L60.1611 8.46299L60.6672 8.97981L61.458 8.20457C62.1222 7.55855 62.2804 6.5572 61.9641 5.74966C62.5651 5.55585 63.1977 5.45895 63.8303 5.45895C67.1831 5.45895 69.935 8.23688 69.935 11.6931C69.935 13.0175 69.5554 14.245 68.7963 15.3109C67.6892 16.8291 65.9179 17.8304 63.9252 17.8304C61.4264 17.8304 59.3071 16.3122 58.3898 14.1157L58.1684 13.7281L56.6185 10.9179L56.4604 10.5949L54.7207 7.75235C53.4238 5.58816 51.0832 4.13459 48.4262 4.13459C45.9274 4.13459 43.6816 5.42665 42.3847 7.39704V0H41.0879V11.6285V11.9515C41.246 15.9569 44.4724 19.1548 48.4262 19.1548C51.3995 19.1548 53.9615 17.3459 55.1319 14.7295L54.2779 13.179C53.6136 15.86 51.2413 17.8304 48.4262 17.8304C45.5478 17.8304 43.1755 15.7954 42.5429 13.0821C42.448 12.6299 42.3847 12.1454 42.3847 11.6608C42.3847 11.4347 42.3847 11.2409 42.4164 11.0148C42.7327 7.88156 45.2948 5.45895 48.4262 5.45895C50.5771 5.45895 52.4433 6.5895 53.5187 8.33378V8.36608C53.6452 8.55989 53.7401 8.7214 53.835 8.91521L54.2462 9.69044L55.7012 12.3715L56.239 13.3405L57.5358 15.5047C58.8327 17.7012 61.1733 19.1871 63.8619 19.1871C66.171 19.1871 68.2586 18.0888 69.5871 16.3768C70.6625 14.9879 71.2002 13.3728 71.2002 11.6931Z" fill="white"/>
<path d="M0 4.58681H4.14361V6.68641C5.09253 5.42665 6.35775 4.2961 8.44537 4.2961C10.3432 4.2961 11.7982 5.16824 12.5574 6.6541C13.8226 5.13594 15.3408 4.2961 17.3336 4.2961C20.4017 4.2961 22.2363 6.16958 22.2363 9.75505V19.4455H18.0927V11.1763C18.0927 9.17362 17.2387 8.13997 15.6888 8.13997C14.1389 8.13997 13.19 9.17362 13.19 11.1763V19.4778H9.04635V11.1763C9.04635 9.17362 8.19233 8.13997 6.64243 8.13997C5.09253 8.13997 4.14361 9.17362 4.14361 11.1763V19.4778H0V4.58681Z" fill="white"/>
<path d="M34.3509 4.58681H38.6526L33.054 19.8331C31.9469 22.8694 30.745 24 28.2778 24C26.7912 24 25.6841 23.6124 24.6086 22.9664L26.0004 19.93C26.5381 20.253 27.234 20.5114 27.7717 20.5114C28.4676 20.5114 28.8471 20.2853 29.2267 19.5424L23.5332 4.61911H27.835L31.1562 14.7618L34.3509 4.58681Z" fill="white"/>
<path d="M79.4881 10.3042L84.1062 5.29744C84.3909 5.00673 84.3593 4.52221 84.0746 4.23149C83.7899 3.94078 83.3154 3.97308 83.0308 4.2638L78.4443 9.20592L79.4881 10.3042Z" fill="white"/>
<path d="M79.4878 12.5007L78.4756 13.5989L83.7263 19.2517C83.8844 19.4132 84.0742 19.4778 84.264 19.4778C84.4538 19.4778 84.6119 19.4132 84.7701 19.284C85.0547 18.9933 85.0864 18.5087 84.8017 18.218L79.4878 12.5007Z" fill="white"/>
<path d="M78.4752 11.4024L71.7695 4.16689C71.4848 3.97308 71.1053 4.00538 70.8522 4.23149C70.5676 4.52221 70.5359 5.00673 70.8206 5.29744L76.4508 11.4024L70.1564 18.218C69.8717 18.5087 69.9033 18.9933 70.188 19.284C70.3461 19.4132 70.5043 19.4778 70.6941 19.4778C70.8522 19.4778 70.9788 19.4455 71.1053 19.3486L78.4752 11.4024Z" fill="white"/>
</svg>
